<?xml version="1.0" encoding="UTF-8" standalone="no"?>
<!-- Created with Inkscape (http://www.inkscape.org/) -->

<svg
   xmlns:osb="http://www.openswatchbook.org/uri/2009/osb"
   xmlns:dc="http://purl.org/dc/elements/1.1/"
   xmlns:cc="http://creativecommons.org/ns#"
   xmlns:rdf="http://www.w3.org/1999/02/22-rdf-syntax-ns#"
   xmlns:svg="http://www.w3.org/2000/svg"
   xmlns="http://www.w3.org/2000/svg"
   xmlns:xlink="http://www.w3.org/1999/xlink"
   xmlns:sodipodi="http://sodipodi.sourceforge.net/DTD/sodipodi-0.dtd"
   xmlns:inkscape="http://www.inkscape.org/namespaces/inkscape"
   width="48px"
   height="48px"
   id="svg2985"
   version="1.1"
   inkscape:version="0.48.0 r9654"
   sodipodi:docname="icon1.svg"
   inkscape:export-filename="/home/cielak/harmonyseq_24.png"
   inkscape:export-xdpi="45"
   inkscape:export-ydpi="45">
  <defs
     id="defs2987">
    <linearGradient
       id="linearGradient4758">
      <stop
         style="stop-color:#ffffff;stop-opacity:1;"
         offset="0"
         id="stop4760" />
      <stop
         style="stop-color:#8796b0;stop-opacity:1;"
         offset="1"
         id="stop4762" />
    </linearGradient>
    <linearGradient
       id="linearGradient3991"
       osb:paint="solid">
      <stop
         style="stop-color:#1a1437;stop-opacity:1;"
         offset="0"
         id="stop3993" />
    </linearGradient>
    <linearGradient
       id="linearGradient3943">
      <stop
         style="stop-color:#ffffff;stop-opacity:1;"
         offset="0"
         id="stop3945" />
      <stop
         style="stop-color:#ff0015;stop-opacity:1;"
         offset="1"
         id="stop3947" />
    </linearGradient>
    <linearGradient
       id="linearGradient4132">
      <stop
         id="stop4134"
         offset="0"
         style="stop-color:#000000;stop-opacity:0.26950353;" />
      <stop
         style="stop-color:#000000;stop-opacity:0.58156025;"
         offset="0.2540217"
         id="stop4136" />
      <stop
         style="stop-color:#000000;stop-opacity:0.43971631;"
         offset="0.72237128"
         id="stop4138" />
      <stop
         id="stop4140"
         offset="1"
         style="stop-color:#000000;stop-opacity:0.17605634;" />
    </linearGradient>
    <linearGradient
       id="linearGradient4117">
      <stop
         style="stop-color:#000000;stop-opacity:0;"
         offset="0"
         id="stop4119" />
      <stop
         id="stop4130"
         offset="0.25"
         style="stop-color:#000000;stop-opacity:0.65492958;" />
      <stop
         id="stop4128"
         offset="0.5"
         style="stop-color:#000000;stop-opacity:0.74647886;" />
      <stop
         style="stop-color:#000000;stop-opacity:0;"
         offset="1"
         id="stop4121" />
    </linearGradient>
    <linearGradient
       id="linearGradient4103">
      <stop
         style="stop-color:#000000;stop-opacity:0.41549295;"
         offset="0"
         id="stop4105" />
      <stop
         id="stop4111"
         offset="0.85355246"
         style="stop-color:#000000;stop-opacity:0.34507042;" />
      <stop
         style="stop-color:#000000;stop-opacity:0;"
         offset="1"
         id="stop4107" />
    </linearGradient>
    <linearGradient
       id="linearGradient3111">
      <stop
         style="stop-color:#ffffff;stop-opacity:1;"
         offset="0"
         id="stop3113" />
      <stop
         style="stop-color:#8695af;stop-opacity:1;"
         offset="1"
         id="stop3115" />
    </linearGradient>
    <linearGradient
       id="linearGradient3068">
      <stop
         style="stop-color:#e6e6e6;stop-opacity:1;"
         offset="0"
         id="stop3070" />
      <stop
         style="stop-color:#5c759e;stop-opacity:1;"
         offset="1"
         id="stop3072" />
    </linearGradient>
    <linearGradient
       id="linearGradient3040">
      <stop
         style="stop-color:#5903c4;stop-opacity:1;"
         offset="0"
         id="stop3042" />
      <stop
         id="stop3064"
         offset="0.0625"
         style="stop-color:#6619c4;stop-opacity:0.9372549;" />
      <stop
         id="stop3062"
         offset="0.125"
         style="stop-color:#7330c5;stop-opacity:0.8745098;" />
      <stop
         id="stop3060"
         offset="0.25"
         style="stop-color:#8e5dc7;stop-opacity:0.74901961;" />
      <stop
         id="stop3058"
         offset="0.5"
         style="stop-color:#c4b7ca;stop-opacity:0.49803922;" />
      <stop
         style="stop-color:#e3dbdb;stop-opacity:0;"
         offset="1"
         id="stop3044" />
    </linearGradient>
    <inkscape:perspective
       sodipodi:type="inkscape:persp3d"
       inkscape:vp_x="14.142857 : 33.428571 : 1"
       inkscape:vp_y="0 : 1000 : 0"
       inkscape:vp_z="48 : 24 : 1"
       inkscape:persp3d-origin="24 : 16 : 1"
       id="perspective2995" />
    <linearGradient
       inkscape:collect="always"
       xlink:href="#linearGradient3068-2"
       id="linearGradient3074-0"
       x1="10"
       y1="38"
       x2="40"
       y2="42"
       gradientUnits="userSpaceOnUse" />
    <linearGradient
       id="linearGradient3068-2">
      <stop
         style="stop-color:#e6e6e6;stop-opacity:1;"
         offset="0"
         id="stop3070-3" />
      <stop
         style="stop-color:#4a4762;stop-opacity:1;"
         offset="1"
         id="stop3072-9" />
    </linearGradient>
    <radialGradient
       inkscape:collect="always"
       xlink:href="#linearGradient3111"
       id="radialGradient3117"
       cx="52.534195"
       cy="42.14912"
       fx="52.534195"
       fy="42.14912"
       r="20"
       gradientTransform="matrix(-0.29999987,-0.45,1.4594184,-0.23808731,-23.752951,66.675558)"
       gradientUnits="userSpaceOnUse" />
    <linearGradient
       inkscape:collect="always"
       xlink:href="#linearGradient3068"
       id="linearGradient4099"
       gradientUnits="userSpaceOnUse"
       gradientTransform="matrix(0.95238095,0,0,0.75,1.1428571,9.5)"
       x1="12.45"
       y1="34"
       x2="22.074999"
       y2="47.238094" />
    <radialGradient
       inkscape:collect="always"
       xlink:href="#linearGradient4103"
       id="radialGradient4109"
       cx="25.980957"
       cy="31.03788"
       fx="25.980957"
       fy="31.03788"
       r="22.5"
       gradientTransform="matrix(1.0234694,-0.0031746,3.4827782e-4,0.09972901,-1.4804575,39.574375)"
       gradientUnits="userSpaceOnUse" />
    <radialGradient
       inkscape:collect="always"
       xlink:href="#linearGradient4117"
       id="radialGradient4123"
       cx="40.932323"
       cy="69.265472"
       fx="40.932323"
       fy="69.265472"
       r="31.75"
       gradientTransform="matrix(0.71771605,-0.00866144,0.0024087,0.34644214,-5.7720084,19.60359)"
       gradientUnits="userSpaceOnUse" />
    <linearGradient
       inkscape:collect="always"
       xlink:href="#linearGradient4132"
       id="linearGradient4126"
       x1="24.642857"
       y1="44.85714"
       x2="24.529215"
       y2="40.511887"
       gradientUnits="userSpaceOnUse"
       gradientTransform="translate(1.219362,1.3117115)"
       spreadMethod="pad" />
    <filter
       inkscape:collect="always"
       id="filter3829"
       x="-0.056300922"
       width="1.1126018"
       y="-0.23343999"
       height="1.46688">
      <feGaussianBlur
         inkscape:collect="always"
         stdDeviation="1.0034603"
         id="feGaussianBlur3831" />
    </filter>
    <radialGradient
       inkscape:collect="always"
       xlink:href="#linearGradient3943-9"
       id="radialGradient3949-6"
       cx="8"
       cy="36"
       fx="8"
       fy="36"
       r="2.5"
       gradientUnits="userSpaceOnUse"
       gradientTransform="matrix(0.80000021,0.7999999,-0.70710581,0.70710775,27.055807,4.1441221)" />
    <linearGradient
       id="linearGradient3943-9">
      <stop
         style="stop-color:#ffffff;stop-opacity:1;"
         offset="0"
         id="stop3945-9" />
      <stop
         style="stop-color:#ff0015;stop-opacity:1;"
         offset="1"
         id="stop3947-7" />
    </linearGradient>
    <radialGradient
       inkscape:collect="always"
       xlink:href="#linearGradient3943-3"
       id="radialGradient3949-0"
       cx="8"
       cy="36"
       fx="8"
       fy="36"
       r="2.5"
       gradientUnits="userSpaceOnUse"
       gradientTransform="matrix(0.80000021,0.7999999,-0.70710581,0.70710775,27.055807,4.1441221)" />
    <linearGradient
       id="linearGradient3943-3">
      <stop
         style="stop-color:#ffffff;stop-opacity:1;"
         offset="0"
         id="stop3945-2" />
      <stop
         style="stop-color:#ff0015;stop-opacity:1;"
         offset="1"
         id="stop3947-3" />
    </linearGradient>
    <radialGradient
       inkscape:collect="always"
       xlink:href="#linearGradient3943-3-2"
       id="radialGradient4134-8"
       gradientUnits="userSpaceOnUse"
       gradientTransform="matrix(0.80000021,0.7999999,-0.70710581,0.70710775,27.055807,4.1441221)"
       cx="8"
       cy="36"
       fx="8"
       fy="36"
       r="2.5" />
    <linearGradient
       id="linearGradient3943-3-2">
      <stop
         style="stop-color:#ffffff;stop-opacity:1;"
         offset="0"
         id="stop3945-2-3" />
      <stop
         style="stop-color:#07d642;stop-opacity:1;"
         offset="1"
         id="stop3947-3-6" />
    </linearGradient>
    <radialGradient
       r="2.5"
       fy="36"
       fx="8"
       cy="36"
       cx="8"
       gradientTransform="matrix(0.80000021,0.7999999,-0.70710581,0.70710775,27.055807,4.1441221)"
       gradientUnits="userSpaceOnUse"
       id="radialGradient4151-9"
       xlink:href="#linearGradient3943-3-2-9"
       inkscape:collect="always" />
    <linearGradient
       id="linearGradient3943-3-2-9">
      <stop
         style="stop-color:#ffffff;stop-opacity:1;"
         offset="0"
         id="stop3945-2-3-3" />
      <stop
         style="stop-color:#ff0015;stop-opacity:1;"
         offset="1"
         id="stop3947-3-6-9" />
    </linearGradient>
    <radialGradient
       inkscape:collect="always"
       xlink:href="#linearGradient3943-3-2-9-0"
       id="radialGradient4221-6"
       gradientUnits="userSpaceOnUse"
       gradientTransform="matrix(0.80000021,0.7999999,-0.70710581,0.70710775,27.055807,4.1441221)"
       cx="8"
       cy="36"
       fx="8"
       fy="36"
       r="2.5" />
    <linearGradient
       id="linearGradient3943-3-2-9-0">
      <stop
         style="stop-color:#ffffff;stop-opacity:1;"
         offset="0"
         id="stop3945-2-3-3-4" />
      <stop
         style="stop-color:#ff0015;stop-opacity:1;"
         offset="1"
         id="stop3947-3-6-9-6" />
    </linearGradient>
    <radialGradient
       inkscape:collect="always"
       xlink:href="#linearGradient4758"
       id="radialGradient4764"
       cx="3.643353"
       cy="25.658056"
       fx="3.643353"
       fy="25.658056"
       r="21.291118"
       gradientTransform="matrix(1.4046349,0.09100038,-0.00820651,0.12622457,7.0617322,24.273526)"
       gradientUnits="userSpaceOnUse" />
  </defs>
  <sodipodi:namedview
     id="base"
     pagecolor="#ffffff"
     bordercolor="#666666"
     borderopacity="1.0"
     inkscape:pageopacity="0"
     inkscape:pageshadow="2"
     inkscape:zoom="11.313708"
     inkscape:cx="25.089146"
     inkscape:cy="22.524328"
     inkscape:current-layer="layer1"
     showgrid="true"
     inkscape:grid-bbox="true"
     inkscape:document-units="px"
     inkscape:snap-global="false"
     inkscape:window-width="1440"
     inkscape:window-height="849"
     inkscape:window-x="0"
     inkscape:window-y="24"
     inkscape:window-maximized="1">
    <inkscape:grid
       type="xygrid"
       id="grid2993"
       empspacing="5"
       visible="true"
       enabled="true"
       snapvisiblegridlinesonly="true" />
  </sodipodi:namedview>
  <metadata
     id="metadata2990">
    <rdf:RDF>
      <cc:Work
         rdf:about="">
        <dc:format>image/svg+xml</dc:format>
        <dc:type
           rdf:resource="http://purl.org/dc/dcmitype/StillImage" />
        <dc:title></dc:title>
      </cc:Work>
    </rdf:RDF>
  </metadata>
  <g
     id="layer1"
     inkscape:label="Layer 1"
     inkscape:groupmode="layer">
    <path
       style="fill:url(#linearGradient4126);fill-opacity:1;opacity:1;filter:url(#filter3829)"
       d="m 37.219926,36.168856 c 6.145726,2.459073 9.045429,4.185652 9.606581,6.033483 0.424044,1.396346 0.10748,2.358786 -1.642296,2.859374 -3.307176,0.946139 -11.703153,1.313876 -18.411278,1.410713 C 21.298714,46.551451 14.666585,46.289459 6.7187995,45.168853 4.9166503,44.914757 4.3691877,44.124883 4.2193618,42.13091 8.7067033,37.956226 4.5988296,36.168856 37.219926,36.168856 z"
       id="rect4115"
       inkscape:connector-curvature="0"
       sodipodi:nodetypes="csssscc"
       inkscape:export-xdpi="90"
       inkscape:export-ydpi="90" />
    <path
       style="fill:url(#radialGradient4764);fill-opacity:1;stroke:#0f1e2d;stroke-width:1px;stroke-linecap:butt;stroke-linejoin:round;stroke-opacity:1"
       d="m 3.6128738,30.907903 6.4302532,-4.39732 26.980542,-5e-6 7.221131,4.326222 z"
       id="path4756"
       inkscape:connector-curvature="0"
       sodipodi:nodetypes="ccccc" />
    <path
       style="fill:#0f1d2d;fill-opacity:1"
       d="m 5,30 38,0 c 1.662,0 3,1.338 3,3 l 0,7 c 0,1.662 -1.338,3 -3,3 L 5,43 C 3.338,43 2,41.662 2,40 l 0,-7 c 0,-1.662 1.338,-3 3,-3 z"
       id="rect3032"
       inkscape:connector-curvature="0"
       sodipodi:nodetypes="sssssssss" />
    <path
       style="fill:#f9f9f9"
       d="m 5,31 38,0 c 1.108,0 2,0.892 2,2 l 0,7 c 0,1.108 -0.892,2 -2,2 L 5,42 C 3.892,42 3,41.108 3,40 l 0,-7 c 0,-1.108 0.892,-2 2,-2 z"
       id="rect3119"
       inkscape:connector-curvature="0"
       sodipodi:nodetypes="sssssssss" />
    <path
       style="fill:url(#linearGradient4099);fill-opacity:1"
       d="m 6,32 36,0 c 1.108,0 2,0.892 2,2 l 0,5 c 0,1.108 -0.892,2 -2,2 L 6,41 C 4.892,41 4,40.108 4,39 l 0,-5 c 0,-1.108 0.892,-2 2,-2 z"
       id="rect3038"
       inkscape:connector-curvature="0"
       sodipodi:nodetypes="sssssssss" />
    <path
       style="fill:url(#radialGradient3117);fill-opacity:1"
       d="M 39.142857,32 42,32 c 1.055238,0 1.891573,0.669105 1.904762,1.5 L 44,39.5 c 0.01319,0.830895 -0.849524,1.5 -1.904762,1.5 L 5.9047619,41 C 33.52381,41 20.095238,32 39.142857,32 z"
       id="rect3038-8"
       inkscape:connector-curvature="0"
       sodipodi:nodetypes="csssscc" />
    <rect
       style="fill:#f9f9f9;fill-opacity:0"
       id="rect3178"
       width="26.668028"
       height="5.3538084"
       x="0.80812204"
       y="23.655323"
       rx="1.9047619"
       ry="1.5" />
    <rect
       style="fill:none"
       id="rect4113"
       width="45"
       height="4.4285712"
       x="3.6428571"
       y="41.285713"
       rx="4.5"
       ry="3.75" />
    <path
       sodipodi:type="arc"
       style="fill:#800000;fill-opacity:1;opacity:0.70520001"
       id="path3837"
       sodipodi:cx="8.5"
       sodipodi:cy="36.5"
       sodipodi:rx="2.5"
       sodipodi:ry="2.5"
       d="m 11,36.5 a 2.5,2.5 0 1 1 -5,0 2.5,2.5 0 1 1 5,0 z" />
    <path
       sodipodi:type="arc"
       style="fill:#ff0000;fill-opacity:1;opacity:0.70520001"
       id="path4257"
       sodipodi:cx="8.5"
       sodipodi:cy="36.5"
       sodipodi:rx="1.5"
       sodipodi:ry="1.5"
       d="m 10,36.5 a 1.5,1.5 0 1 1 -3,0 1.5,1.5 0 1 1 3,0 z" />
    <path
       transform="translate(6,0)"
       sodipodi:type="arc"
       style="fill:#800000;fill-opacity:1;opacity:0.70520001"
       id="path3837-8"
       sodipodi:cx="8.5"
       sodipodi:cy="36.5"
       sodipodi:rx="2.5"
       sodipodi:ry="2.5"
       d="m 11,36.5 a 2.5,2.5 0 1 1 -5,0 2.5,2.5 0 1 1 5,0 z" />
    <path
       transform="translate(6,0)"
       sodipodi:type="arc"
       style="fill:#ff0000;fill-opacity:1;opacity:0.70520001"
       id="path4257-6"
       sodipodi:cx="8.5"
       sodipodi:cy="36.5"
       sodipodi:rx="1.5"
       sodipodi:ry="1.5"
       d="m 10,36.5 a 1.5,1.5 0 1 1 -3,0 1.5,1.5 0 1 1 3,0 z" />
    <path
       transform="translate(12,0)"
       sodipodi:type="arc"
       style="fill:#800000;fill-opacity:1;opacity:0.70520001"
       id="path3837-80"
       sodipodi:cx="8.5"
       sodipodi:cy="36.5"
       sodipodi:rx="2.5"
       sodipodi:ry="2.5"
       d="m 11,36.5 a 2.5,2.5 0 1 1 -5,0 2.5,2.5 0 1 1 5,0 z" />
    <path
       transform="translate(12,0)"
       sodipodi:type="arc"
       style="fill:#ff0000;fill-opacity:1;opacity:0.70520001"
       id="path4257-7"
       sodipodi:cx="8.5"
       sodipodi:cy="36.5"
       sodipodi:rx="1.5"
       sodipodi:ry="1.5"
       d="m 10,36.5 a 1.5,1.5 0 1 1 -3,0 1.5,1.5 0 1 1 3,0 z" />
    <path
       transform="translate(18,0)"
       sodipodi:type="arc"
       style="fill:#008000;fill-opacity:1;opacity:1"
       id="path3837-8-8"
       sodipodi:cx="8.5"
       sodipodi:cy="36.5"
       sodipodi:rx="2.5"
       sodipodi:ry="2.5"
       d="m 11,36.5 a 2.5,2.5 0 1 1 -5,0 2.5,2.5 0 1 1 5,0 z" />
    <path
       transform="translate(18,0)"
       sodipodi:type="arc"
       style="fill:#00ff00;fill-opacity:1;opacity:1"
       id="path4257-6-6"
       sodipodi:cx="8.5"
       sodipodi:cy="36.5"
       sodipodi:rx="1.5"
       sodipodi:ry="1.5"
       d="m 10,36.5 a 1.5,1.5 0 1 1 -3,0 1.5,1.5 0 1 1 3,0 z" />
    <path
       transform="translate(24,0)"
       sodipodi:type="arc"
       style="fill:#800000;fill-opacity:1;opacity:0.70520001"
       id="path3837-7"
       sodipodi:cx="8.5"
       sodipodi:cy="36.5"
       sodipodi:rx="2.5"
       sodipodi:ry="2.5"
       d="m 11,36.5 a 2.5,2.5 0 1 1 -5,0 2.5,2.5 0 1 1 5,0 z" />
    <path
       transform="translate(24,0)"
       sodipodi:type="arc"
       style="fill:#ff0000;fill-opacity:1;opacity:0.70520001"
       id="path4257-2"
       sodipodi:cx="8.5"
       sodipodi:cy="36.5"
       sodipodi:rx="1.5"
       sodipodi:ry="1.5"
       d="m 10,36.5 a 1.5,1.5 0 1 1 -3,0 1.5,1.5 0 1 1 3,0 z" />
    <path
       transform="translate(30,0)"
       sodipodi:type="arc"
       style="fill:#800000;fill-opacity:1;opacity:0.70520001"
       id="path3837-8-80"
       sodipodi:cx="8.5"
       sodipodi:cy="36.5"
       sodipodi:rx="2.5"
       sodipodi:ry="2.5"
       d="m 11,36.5 a 2.5,2.5 0 1 1 -5,0 2.5,2.5 0 1 1 5,0 z" />
    <path
       transform="translate(30,0)"
       sodipodi:type="arc"
       style="fill:#ff0000;fill-opacity:1;opacity:0.70520001"
       id="path4257-6-2"
       sodipodi:cx="8.5"
       sodipodi:cy="36.5"
       sodipodi:rx="1.5"
       sodipodi:ry="1.5"
       d="m 10,36.5 a 1.5,1.5 0 1 1 -3,0 1.5,1.5 0 1 1 3,0 z" />
    <path
       style="fill:none;stroke:#007a00;stroke-width:2;stroke-linecap:butt;stroke-linejoin:miter;stroke-miterlimit:4;stroke-opacity:1;stroke-dasharray:none"
       d="m 6.03125,2 c -0.2651651,14.04334 2.0329321,16.883884 2.0329321,16.883884 0,0 -3.9462824,-9.3510304 1.4670679,-9.8760712 2.33137,-0.2261196 3.448535,2.0875252 3.480911,5.6322192 0.03238,3.544694 -1.940844,5.596563 -1.940844,5.596563"
       id="path4360"
       inkscape:connector-curvature="0"
       sodipodi:nodetypes="ccszc"
       inkscape:export-xdpi="90"
       inkscape:export-ydpi="90"
       inkscape:transform-center-x="-0.4375" />
    <path
       style="fill:none;stroke:#0f1d2c;stroke-width:2;stroke-linecap:butt;stroke-linejoin:round;stroke-miterlimit:0;stroke-opacity:1;stroke-dasharray:none;marker-mid:none"
       d="m 25.9375,15.032932 c 5.050809,0 4.374179,0 7.025165,0.04241 -0.02517,-3.04241 -2.025165,-4.04241 -3.525165,-4.04241 -1.5,0 -3.5,1 -3.5,4 0,2.5 1.703125,4.003791 3.734375,4.003791 1.65625,0 3.334945,-0.0038 3.334945,-0.0038"
       id="path4364"
       inkscape:connector-curvature="0"
       sodipodi:nodetypes="ccsssc" />
    <path
       style="fill:none;stroke:#0f1d2c;stroke-width:2;stroke-linecap:butt;stroke-linejoin:miter;stroke-miterlimit:4;stroke-opacity:1;stroke-dasharray:none"
       d="m 16.741367,18.09419 c 0,0 1.483778,1.066504 3.048365,1.066504 1.220751,0 3.114489,-0.02042 3.114489,-2.074226 0,-1.053807 -1.346911,-2.053807 -2.896948,-2.053807 -1.550036,0 -2.834447,-1 -2.834447,-2.053807 0,-2.053807 2.034411,-2.053807 2.834447,-2.053807 1.550037,0 3.201636,1.230028 3.201636,1.230028"
       id="path3969"
       inkscape:connector-curvature="0"
       sodipodi:nodetypes="csssssc" />
    <path
       style="fill:none;stroke:#0f1d2c;stroke-width:2;stroke-linecap:butt;stroke-linejoin:miter;stroke-miterlimit:4;stroke-opacity:1;stroke-dasharray:none;stroke-dashoffset:0"
       d="m 43,26.032932 c 0,0 0,-8 0,-11 0,-3 -1.497184,-4 -3.497184,-4 -2,0 -3.502816,2 -3.502816,4 0,2 1.491767,4 3.491767,4 2,0 3.508233,-2 3.508233,-4"
       id="path3971"
       inkscape:connector-curvature="0"
       sodipodi:nodetypes="cszzzc" />
  </g>
</svg>
