<?xml version="1.0" encoding="UTF-8" standalone="no"?>
<!-- Created with Inkscape (http://www.inkscape.org/) -->

<svg
   xmlns:dc="http://purl.org/dc/elements/1.1/"
   xmlns:cc="http://creativecommons.org/ns#"
   xmlns:rdf="http://www.w3.org/1999/02/22-rdf-syntax-ns#"
   xmlns:svg="http://www.w3.org/2000/svg"
   xmlns="http://www.w3.org/2000/svg"
   xmlns:xlink="http://www.w3.org/1999/xlink"
   xmlns:sodipodi="http://sodipodi.sourceforge.net/DTD/sodipodi-0.dtd"
   xmlns:inkscape="http://www.inkscape.org/namespaces/inkscape"
   width="32px"
   height="32px"
   id="svg2993"
   version="1.1"
   inkscape:version="0.48.2 r9819"
   enable-background="new"
   sodipodi:docname="add_note_seq.svg.2011_08_16_15_28_14.0.svg"
   inkscape:export-filename="/home/cielak/Programy/harmonySEQ/trunk/pixmaps/24x24/add_note_seq.png"
   inkscape:export-xdpi="67.5"
   inkscape:export-ydpi="67.5">
  <defs
     id="defs2995">
    <linearGradient
       id="linearGradient3830">
      <stop
         style="stop-color:#ffff11;stop-opacity:1;"
         offset="0"
         id="stop3832" />
      <stop
         style="stop-color:#d28405;stop-opacity:1"
         offset="1"
         id="stop3834" />
    </linearGradient>
    <linearGradient
       id="linearGradient3869">
      <stop
         id="stop3871"
         offset="0"
         style="stop-color:#78b611;stop-opacity:1;" />
      <stop
         id="stop3873"
         offset="1"
         style="stop-color:#ffffff;stop-opacity:1;" />
    </linearGradient>
    <linearGradient
       id="linearGradient3851">
      <stop
         style="stop-color:#79b611;stop-opacity:1;"
         offset="0"
         id="stop3853" />
      <stop
         style="stop-color:#dbfe98;stop-opacity:1;"
         offset="1"
         id="stop3855" />
    </linearGradient>
    <radialGradient
       id="radialGradient2469"
       gradientUnits="userSpaceOnUse"
       cy="4.625"
       cx="62.625"
       gradientTransform="matrix(1.5059,0,0,0.37647,-78.306,26.259)"
       r="10.625">
      <stop
         id="stop8840"
         offset="0" />
      <stop
         id="stop8842"
         style="stop-opacity:0"
         offset="1" />
    </radialGradient>
    <linearGradient
       id="linearGradient2452"
       y2="34.224998"
       gradientUnits="userSpaceOnUse"
       x2="24.104"
       gradientTransform="matrix(1.372,0,0,1.3637,-16.76,-15.39)"
       y1="15.181"
       x1="24.104">
      <stop
         id="stop2266"
         style="stop-color:#d7e866"
         offset="0" />
      <stop
         id="stop2268"
         style="stop-color:#8cab2a"
         offset="1" />
    </linearGradient>
    <linearGradient
       id="linearGradient3255"
       y2="31.066999"
       gradientUnits="userSpaceOnUse"
       x2="15"
       y1="1"
       x1="15">
      <stop
         id="stop3247"
         style="stop-color:#fff"
         offset="0" />
      <stop
         id="stop3249"
         style="stop-color:#fff;stop-opacity:0"
         offset="1" />
    </linearGradient>
    <radialGradient
       inkscape:collect="always"
       xlink:href="#radialGradient2469"
       id="radialGradient3831"
       gradientUnits="userSpaceOnUse"
       gradientTransform="matrix(1.5059,0,0,0.37647,-78.306,26.259)"
       cx="62.625"
       cy="4.625"
       r="10.625" />
    <linearGradient
       inkscape:collect="always"
       xlink:href="#linearGradient2452"
       id="linearGradient3833"
       gradientUnits="userSpaceOnUse"
       gradientTransform="matrix(1.372,0,0,1.3637,-16.76,-15.39)"
       x1="22.784256"
       y1="14.58532"
       x2="24.104"
       y2="34.224998" />
    <linearGradient
       inkscape:collect="always"
       xlink:href="#linearGradient3255"
       id="linearGradient3835"
       gradientUnits="userSpaceOnUse"
       x1="15"
       y1="1"
       x2="15"
       y2="31.066999" />
    <linearGradient
       inkscape:collect="always"
       xlink:href="#linearGradient3851"
       id="linearGradient3857"
       x1="11.5"
       y1="15.5"
       x2="9.5"
       y2="6.5"
       gradientUnits="userSpaceOnUse" />
    <linearGradient
       inkscape:collect="always"
       xlink:href="#linearGradient3869"
       id="linearGradient3867"
       x1="10.5"
       y1="15.5"
       x2="8"
       y2="7"
       gradientUnits="userSpaceOnUse" />
    <radialGradient
       inkscape:collect="always"
       xlink:href="#linearGradient3111"
       id="radialGradient3117"
       cx="52.534195"
       cy="42.14912"
       fx="52.534195"
       fy="42.14912"
       r="20"
       gradientTransform="matrix(-0.20404847,-0.30607284,0.99264072,-0.16193791,-16.27933,44.084992)"
       gradientUnits="userSpaceOnUse" />
    <linearGradient
       id="linearGradient3111">
      <stop
         style="stop-color:#ffffff;stop-opacity:1;"
         offset="0"
         id="stop3113" />
      <stop
         style="stop-color:#8695af;stop-opacity:1;"
         offset="1"
         id="stop3115" />
    </linearGradient>
    <linearGradient
       inkscape:collect="always"
       xlink:href="#linearGradient3068"
       id="linearGradient4099"
       gradientUnits="userSpaceOnUse"
       gradientTransform="matrix(0.6477732,0,0,0.5101214,0.6538491,5.1963581)"
       x1="12.45"
       y1="34"
       x2="22.074999"
       y2="47.238094" />
    <linearGradient
       id="linearGradient3068">
      <stop
         style="stop-color:#e6e6e6;stop-opacity:1;"
         offset="0"
         id="stop3070" />
      <stop
         style="stop-color:#5c759e;stop-opacity:1;"
         offset="1"
         id="stop3072" />
    </linearGradient>
    <radialGradient
       inkscape:collect="always"
       xlink:href="#linearGradient4758"
       id="radialGradient4764"
       cx="3.643353"
       cy="25.658056"
       fx="3.643353"
       fy="25.658056"
       r="21.291119"
       gradientTransform="matrix(1.4046349,0.09100038,-0.00820651,0.12622457,7.0617322,24.273526)"
       gradientUnits="userSpaceOnUse" />
    <linearGradient
       id="linearGradient4758">
      <stop
         style="stop-color:#ffffff;stop-opacity:1;"
         offset="0"
         id="stop4760" />
      <stop
         style="stop-color:#8796b0;stop-opacity:1;"
         offset="1"
         id="stop4762" />
    </linearGradient>
    <radialGradient
       r="21.291119"
       fy="25.658056"
       fx="3.643353"
       cy="25.658056"
       cx="3.643353"
       gradientTransform="matrix(0.95537908,0.06189499,-0.00558175,0.08585314,4.6796422,15.244748)"
       gradientUnits="userSpaceOnUse"
       id="radialGradient3116"
       xlink:href="#linearGradient4758"
       inkscape:collect="always" />
    <filter
       inkscape:collect="always"
       id="filter4071"
       x="-0.21375428"
       width="1.4275086"
       y="-0.96189424"
       height="2.9237885">
      <feGaussianBlur
         inkscape:collect="always"
         stdDeviation="2.4047356"
         id="feGaussianBlur4073" />
    </filter>
    <linearGradient
       inkscape:collect="always"
       xlink:href="#linearGradient3830"
       id="linearGradient3836"
       x1="23.5"
       y1="4.5"
       x2="26.5"
       y2="12.5"
       gradientUnits="userSpaceOnUse" />
  </defs>
  <sodipodi:namedview
     id="base"
     pagecolor="#ffffff"
     bordercolor="#666666"
     borderopacity="1.0"
     inkscape:pageopacity="0.0"
     inkscape:pageshadow="2"
     inkscape:zoom="22.627417"
     inkscape:cx="28.222308"
     inkscape:cy="17.985417"
     inkscape:current-layer="layer2"
     showgrid="true"
     inkscape:grid-bbox="true"
     inkscape:document-units="px"
     showguides="true"
     inkscape:guide-bbox="true"
     inkscape:snap-smooth-nodes="false"
     inkscape:object-nodes="false"
     inkscape:window-width="1440"
     inkscape:window-height="876"
     inkscape:window-x="0"
     inkscape:window-y="24"
     inkscape:window-maximized="1"
     inkscape:snap-bbox="false"
     inkscape:bbox-nodes="false"
     inkscape:snap-bbox-edge-midpoints="false"
     inkscape:snap-bbox-midpoints="false">
    <inkscape:grid
       type="xygrid"
       id="grid3001"
       empspacing="5"
       visible="true"
       enabled="false"
       snapvisiblegridlinesonly="true"
       originx="0px"
       originy="0px" />
    <sodipodi:guide
       orientation="0,1"
       position="-8,16"
       id="guide3784" />
    <sodipodi:guide
       orientation="1,0"
       position="16.5,1.5"
       id="guide3786" />
    <sodipodi:guide
       orientation="1,0"
       position="9.5,22.5"
       id="guide3837" />
    <sodipodi:guide
       orientation="0,1"
       position="9.5,22.5"
       id="guide3839" />
    <inkscape:grid
       type="xygrid"
       id="grid3948"
       empspacing="5"
       visible="true"
       enabled="true"
       snapvisiblegridlinesonly="true"
       originx="0.5px"
       originy="0.5px" />
  </sodipodi:namedview>
  <metadata
     id="metadata2998">
    <rdf:RDF>
      <cc:Work
         rdf:about="">
        <dc:format>image/svg+xml</dc:format>
        <dc:type
           rdf:resource="http://purl.org/dc/dcmitype/StillImage" />
        <dc:title></dc:title>
      </cc:Work>
    </rdf:RDF>
  </metadata>
  <g
     inkscape:groupmode="layer"
     id="layer2"
     inkscape:label="icon"
     style="opacity:1;">
    <path
       sodipodi:type="arc"
       style="fill:#000000;fill-opacity:1;stroke:none;filter:url(#filter4071)"
       id="path4037"
       sodipodi:cx="16.5"
       sodipodi:cy="26"
       sodipodi:rx="13.5"
       sodipodi:ry="3"
       d="M 30,26 A 13.5,3 0 1 1 3,26 13.5,3 0 1 1 30,26 z"
       transform="matrix(1,0,0,0.5,0,15.5)" />
    <path
       style="fill:url(#radialGradient3116);fill-opacity:1;stroke:#0f1e2d;stroke-width:1;stroke-linecap:butt;stroke-linejoin:round;stroke-miterlimit:4;stroke-opacity:1;stroke-dasharray:none"
       d="m 2.5,14.5 4,-3 19,0 4,3 z"
       id="path4756"
       inkscape:connector-curvature="0"
       sodipodi:nodetypes="ccccc" />
    <path
       style="fill:#0f1d2d;fill-opacity:1;stroke-width:1;stroke-miterlimit:4;stroke-dasharray:none"
       d="m 3,14 26,0 c 1.130429,0 2,0.869571 2,2 l 0,10 c 0,1.130429 -0.869571,2 -2,2 L 3,28 C 1.869571,28 1,27.130429 1,26 L 1,16 c 0,-1.130429 0.869571,-2 2,-2 z"
       id="rect3032"
       inkscape:connector-curvature="0"
       sodipodi:nodetypes="sssssssss" />
    <path
       style="fill:#f9f9f9;stroke-width:1;stroke-miterlimit:4;stroke-dasharray:none"
       d="m 3,15 26,0 c 0.75362,0 1,0.24638 1,1 l 0,10 c 0,0.753619 -0.24638,1 -1,1 L 3,27 C 2.2463807,27 2,26.753619 2,26 L 2,16 c 0,-0.75362 0.2463807,-1 1,-1 z"
       id="rect3119"
       inkscape:connector-curvature="0"
       sodipodi:nodetypes="sssssssss" />
    <path
       style="fill:url(#linearGradient4099);fill-opacity:1;stroke-width:1;stroke-miterlimit:4;stroke-dasharray:none"
       d="m 4,16 24,0 c 0.753619,0 1,0.246382 1,1 l 0,8 c 0,0.75362 -0.246381,1 -1,1 L 4,26 C 3.2463807,26 3,25.75362 3,25 l 0,-8 c 0,-0.753618 0.2463807,-1 1,-1 z"
       id="rect3038"
       inkscape:connector-curvature="0"
       sodipodi:nodetypes="sssssssss" />
    <path
       style="fill:url(#radialGradient3117);fill-opacity:1;stroke-width:1;stroke-miterlimit:4;stroke-dasharray:none"
       d="m 25,16 3,0 c 0.717732,0 1,0.434786 1,1 l 0,8 c 0,0.565215 -0.282268,1 -1,1 L 4,26 c 18.785422,0 8.044538,-10 21,-10 z"
       id="rect3038-8"
       inkscape:connector-curvature="0"
       sodipodi:nodetypes="csssscc" />
    <path
       style="fill:none;stroke:#000000;stroke-width:1px;stroke-linecap:square;stroke-linejoin:miter;stroke-opacity:1"
       d="m 6.5,23.5 6,-5 6,4 10,0"
       id="path4097"
       inkscape:connector-curvature="0"
       sodipodi:nodetypes="cccc" />
    <rect
       style="fill:#f9f9f9;fill-opacity:0;stroke-width:1;stroke-miterlimit:4;stroke-dasharray:none"
       id="rect3178"
       width="18.138577"
       height="3.6414561"
       x="0.42617512"
       y="14.824268"
       rx="1.2955464"
       ry="1.0202428" />
    <rect
       style="fill:none;stroke-width:1;stroke-miterlimit:4;stroke-dasharray:none"
       id="rect4113"
       width="30.607283"
       height="3.0121453"
       x="2.3542535"
       y="26.815786"
       rx="3.0607283"
       ry="2.550607" />
    <path
       sodipodi:type="arc"
       style="fill:#4a4aff;fill-opacity:1;stroke:#0300ff;stroke-opacity:1"
       id="path4077-9"
       sodipodi:cx="16.5"
       sodipodi:cy="21"
       sodipodi:rx="2"
       sodipodi:ry="2"
       d="m 18.5,21 a 2,2 0 1 1 -4,0 2,2 0 1 1 4,0 z"
       transform="translate(-4,-2.5)" />
    <path
       style="fill:url(#linearGradient3857);stroke:#619128;stroke-width:1px;stroke-linecap:butt;stroke-linejoin:round;stroke-opacity:1;fill-opacity:1"
       d="m 6.5,1.5 6,0 0,5 5,0 0,6 -5,0 0,5 -6,0 0,-5 -5,0 0,-6 5,0 z"
       id="path3841"
       inkscape:connector-curvature="0" />
    <path
       style="fill:none;stroke:url(#linearGradient3867)"
       d="m 7.5,2.5 4,0 0,4 c 0,0 0,1 1,1 l 4,0 0,4 -4,0 c -1,0 -1,1 -1,1 l 0,4 -4,0 0,-4 c 0,0 0,-1 -1,-1 l -4,0 0,-4 4,0 c 0,0 1,0 1,-1 z"
       id="path3859"
       inkscape:connector-curvature="0"
       sodipodi:nodetypes="ccccccccccccccccc" />
    <path
       sodipodi:type="arc"
       style="fill:#4a4aff;fill-opacity:1;stroke:#0300ff;stroke-opacity:1"
       id="path4077"
       sodipodi:cx="16.5"
       sodipodi:cy="21"
       sodipodi:rx="2"
       sodipodi:ry="2"
       d="m 18.5,21 a 2,2 0 1 1 -4,0 2,2 0 1 1 4,0 z"
       transform="translate(-10,2.5)" />
    <path
       transform="translate(2,1.5)"
       style="fill:#4a4aff;fill-opacity:1;stroke:#0300ff;stroke-opacity:1"
       d="m 18.5,23 -4,0 0,-4 4,0 z"
       id="path4077-9-7"
       inkscape:connector-curvature="0"
       sodipodi:nodetypes="ccccc" />
    <path
       style="fill:url(#linearGradient3836);fill-opacity:1;stroke:#a85600;stroke-width:1px;stroke-linecap:butt;stroke-linejoin:round;stroke-opacity:1"
       d="m 29.5,2.5 -5,0 -5,7 5,0 -4,9 10,-11 -5,0 z"
       id="path3820"
       inkscape:connector-curvature="0"
       sodipodi:nodetypes="cccccccc" />
  </g>
</svg>
